<svg id="Layer_1" data-name="Layer 1" xmlns="http://www.w3.org/2000/svg" viewBox="0 0 595.28 506.68"><defs><style>.cls-1{fill:#24577b;}</style></defs><path class="cls-1" d="M189.29,337c2.61,1.61,4.45,2.54,6.05,3.77,11.61,8.93,24.93,13.65,39.17,16.25,13.57,2.47,27.21,2.17,40.8.83,13.91-1.38,27.45-4.5,40.3-10.52v-46.8c-1.54.43-2.77.71-3.95,1.11-7.48,2.57-14.86,5.51-22.45,7.67-12.09,3.44-24.43,5.07-37,2.67-13.82-2.64-23.33-10.74-28.63-23.65s-6.42-26.74-5.78-40.62c.56-12.18,2.45-24.1,8.36-35,7.33-13.58,18.34-20.84,34.12-20.87,14.63,0,28.16,3.91,41.28,9.89,1.93.88,3.9,1.69,6.26,2.7l17-43.94A118.07,118.07,0,0,0,303.41,152a145.39,145.39,0,0,0-51.77-6c-22.9,1.47-43.49,8.89-60.61,24.68a24.27,24.27,0,0,1-2.62,1.78c27.44-39.35,81-65.52,139-53a136.71,136.71,0,0,1,108,122c5.73,66.48-34.45,121.89-90.49,141.91A136.72,136.72,0,0,1,189.29,337Z"/></svg>